# xmcd CD database file
#
# Track frame offsets:
#	150
#	19510
#	52067
#	71432
#
# Disc length: 1342 seconds
#
# Revision: 0
# Processed by: cddbd v1.5.1PL0 Copyright (c) Steve Scherf et al.
# Submitted via: CDex 1.51
#
DISCID=2d053c04
DTITLE=Syndrome - DEARS...
DYEAR=2001
DGENRE=Rock
TTITLE0=涙ノ下弦…(NEW VERSION)
TTITLE1=Search for …(LIVE VERSION)
TTITLE2=涙ノ下弦…(VOICELESS VERSION)
TTITLE3=Search for …(VOICELESS VERSION)
EXTD=YEAR: 2001/06/10
EXTT0=
EXTT1=
EXTT2=
EXTT3=
PLAYORDER=
